<mxfile host="app.diagrams.net" agent="Mozilla/5.0 (X11; Linux x86_64) AppleWebKit/537.36 (KHTML, like Gecko) Chrome/137.0.0.0 Safari/537.36" version="28.0.7">
  <diagram name="AWS Photo Share Architecture" id="aws-architecture">
    <mxGraphModel dx="1352" dy="596" grid="1" gridSize="10" guides="1" tooltips="1" connect="1" arrows="1" fold="1" page="1" pageScale="1" pageWidth="1200" pageHeight="900" math="0" shadow="0">
      <root>
        <mxCell id="0" />
        <mxCell id="1" parent="0" />
        <mxCell id="internet-group" value="Internet" style="rounded=1;whiteSpace=wrap;html=1;fillColor=#fff2cc;strokeColor=#d6b656;verticalAlign=top;fontStyle=1;fontSize=14;fontFamily=Arial;" parent="1" vertex="1">
          <mxGeometry x="30" y="30" width="160" height="100" as="geometry" />
        </mxCell>
        <mxCell id="user" value="👤&#xa;Người dùng" style="ellipse;whiteSpace=wrap;html=1;fillColor=#f8cecc;strokeColor=#b85450;fontStyle=1;fontSize=12;fontFamily=Arial;" parent="1" vertex="1">
          <mxGeometry x="70" y="70" width="80" height="50" as="geometry" />
        </mxCell>
        <mxCell id="aws-cloud" value="AWS Cloud" style="rounded=1;whiteSpace=wrap;html=1;fillColor=#e1d5e7;strokeColor=#9673a6;verticalAlign=top;fontStyle=1;fontSize=16;fontFamily=Arial;" parent="1" vertex="1">
          <mxGeometry x="230" y="20" width="930" height="850" as="geometry" />
        </mxCell>
        <mxCell id="cloudfront" value="☁️ CloudFront&#xa;Distribution" style="rounded=1;whiteSpace=wrap;html=1;fillColor=#FF9900;strokeColor=#333333;fontColor=#ffffff;fontStyle=1;fontSize=12;fontFamily=Arial;" parent="1" vertex="1">
          <mxGeometry x="270" y="60" width="140" height="70" as="geometry" />
        </mxCell>
        <mxCell id="alb" value="⚖️ Application&#xa;Load Balancer" style="rounded=1;whiteSpace=wrap;html=1;fillColor=#FF9900;strokeColor=#333333;fontColor=#ffffff;fontStyle=1;fontSize=12;fontFamily=Arial;" parent="1" vertex="1">
          <mxGeometry x="460" y="60" width="140" height="70" as="geometry" />
        </mxCell>
        <mxCell id="vpc" value="VPC: photoshare-vpc" style="rounded=1;whiteSpace=wrap;html=1;fillColor=#dae8fc;strokeColor=#6c8ebf;verticalAlign=top;fontStyle=1;fontSize=14;fontFamily=Arial;" parent="1" vertex="1">
          <mxGeometry x="260" y="170" width="880" height="680" as="geometry" />
        </mxCell>
        <mxCell id="igw" value="🌐 Internet Gateway" style="rounded=1;whiteSpace=wrap;html=1;fillColor=#d5e8d4;strokeColor=#82b366;fontSize=11;fontFamily=Arial;" parent="1" vertex="1">
          <mxGeometry x="650" y="200" width="130" height="50" as="geometry" />
        </mxCell>
        <mxCell id="public-subnet-1a" value="Public Subnet&#xa;(us-east-1a)" style="rounded=1;whiteSpace=wrap;html=1;fillColor=#f8cecc;strokeColor=#b85450;verticalAlign=top;fontStyle=1;fontSize=11;fontFamily=Arial;" parent="1" vertex="1">
          <mxGeometry x="300" y="280" width="180" height="120" as="geometry" />
        </mxCell>
        <mxCell id="nat-1a" value="🛣️ NAT&#xa;Gateway 1a" style="rounded=1;whiteSpace=wrap;html=1;fillColor=#ffe6cc;strokeColor=#d79b00;fontSize=10;fontFamily=Arial;" parent="1" vertex="1">
          <mxGeometry x="320" y="330" width="80" height="50" as="geometry" />
        </mxCell>
        <mxCell id="public-subnet-1b" value="Public Subnet&#xa;(us-east-1b)" style="rounded=1;whiteSpace=wrap;html=1;fillColor=#f8cecc;strokeColor=#b85450;verticalAlign=top;fontStyle=1;fontSize=11;fontFamily=Arial;" parent="1" vertex="1">
          <mxGeometry x="920" y="280" width="180" height="120" as="geometry" />
        </mxCell>
        <mxCell id="nat-1b" value="🛣️ NAT&#xa;Gateway 1b" style="rounded=1;whiteSpace=wrap;html=1;fillColor=#ffe6cc;strokeColor=#d79b00;fontSize=10;fontFamily=Arial;" parent="1" vertex="1">
          <mxGeometry x="1000" y="330" width="80" height="50" as="geometry" />
        </mxCell>
        <mxCell id="asg" value="Auto Scaling Group" style="rounded=1;whiteSpace=wrap;html=1;fillColor=#fff2cc;strokeColor=#d6b656;verticalAlign=top;fontStyle=1;fontSize=13;fontFamily=Arial;" parent="1" vertex="1">
          <mxGeometry x="300" y="440" width="800" height="200" as="geometry" />
        </mxCell>
        <mxCell id="private-subnet-1a" value="Private Subnet&#xa;(us-east-1a)" style="rounded=1;whiteSpace=wrap;html=1;fillColor=#e1d5e7;strokeColor=#9673a6;verticalAlign=top;fontStyle=1;fontSize=11;fontFamily=Arial;" parent="1" vertex="1">
          <mxGeometry x="330" y="480" width="180" height="140" as="geometry" />
        </mxCell>
        <mxCell id="ec2-1a" value="💻 EC2&#xa;Instance 1a" style="rounded=1;whiteSpace=wrap;html=1;fillColor=#FF9900;strokeColor=#333333;fontColor=#ffffff;fontStyle=1;fontSize=11;fontFamily=Arial;" parent="1" vertex="1">
          <mxGeometry x="350" y="540" width="80" height="60" as="geometry" />
        </mxCell>
        <mxCell id="private-subnet-1b" value="Private Subnet&#xa;(us-east-1b)" style="rounded=1;whiteSpace=wrap;html=1;fillColor=#e1d5e7;strokeColor=#9673a6;verticalAlign=top;fontStyle=1;fontSize=11;fontFamily=Arial;" parent="1" vertex="1">
          <mxGeometry x="890" y="480" width="180" height="140" as="geometry" />
        </mxCell>
        <mxCell id="ec2-1b" value="💻 EC2&#xa;Instance 1b" style="rounded=1;whiteSpace=wrap;html=1;fillColor=#FF9900;strokeColor=#333333;fontColor=#ffffff;fontStyle=1;fontSize=11;fontFamily=Arial;" parent="1" vertex="1">
          <mxGeometry x="990" y="540" width="80" height="60" as="geometry" />
        </mxCell>
        <mxCell id="rds-group" value="RDS Multi-AZ" style="rounded=1;whiteSpace=wrap;html=1;fillColor=#d5e8d4;strokeColor=#82b366;verticalAlign=top;fontStyle=1;fontSize=12;fontFamily=Arial;" parent="1" vertex="1">
          <mxGeometry x="300" y="680" width="480" height="140" as="geometry" />
        </mxCell>
        <mxCell id="rds-master" value="🗄️ RDS Master&#xa;(us-east-1a)" style="rounded=1;whiteSpace=wrap;html=1;fillColor=#0073bb;strokeColor=#333333;fontColor=#ffffff;fontStyle=1;fontSize=11;fontFamily=Arial;" parent="1" vertex="1">
          <mxGeometry x="330" y="730" width="120" height="70" as="geometry" />
        </mxCell>
        <mxCell id="rds-slave" value="🗄️ RDS Slave&#xa;(us-east-1b)" style="rounded=1;whiteSpace=wrap;html=1;fillColor=#0073bb;strokeColor=#333333;fontColor=#ffffff;fontStyle=1;fontSize=11;fontFamily=Arial;" parent="1" vertex="1">
          <mxGeometry x="630" y="730" width="120" height="70" as="geometry" />
        </mxCell>
        <mxCell id="s3" value="💾 S3 Bucket&#xa;(Photo Storage)" style="rounded=1;whiteSpace=wrap;html=1;fillColor=#e45c56;strokeColor=#333333;fontColor=#ffffff;fontStyle=1;fontSize=11;fontFamily=Arial;" parent="1" vertex="1">
          <mxGeometry x="860" y="700" width="120" height="80" as="geometry" />
        </mxCell>
        <mxCell id="route53" value="🗺️ Route 53&#xa;(Optional DNS)" style="rounded=1;whiteSpace=wrap;html=1;fillColor=#87CEEB;strokeColor=#333333;fontColor=#000000;fontStyle=1;fontSize=10;fontFamily=Arial;" parent="1" vertex="1">
          <mxGeometry x="650" y="60" width="100" height="70" as="geometry" />
        </mxCell>
        <mxCell id="user-to-alb" value="1. Tải ảnh lên&#xa;(HTTP/HTTPS)" style="edgeStyle=orthogonalEdgeStyle;rounded=0;orthogonalLoop=1;jettySize=auto;html=1;exitX=1;exitY=0.5;entryX=0;entryY=0.5;strokeColor=#d79b00;fontColor=#000000;fontStyle=1;strokeWidth=3;fontSize=11;fontFamily=Arial;" parent="1" source="user" target="alb" edge="1">
          <mxGeometry relative="1" as="geometry">
            <mxPoint x="10" y="-30" as="offset" />
          </mxGeometry>
        </mxCell>
        <mxCell id="user-to-cloudfront" value="2. Xem ảnh&#xa;(HTTPS)" style="edgeStyle=orthogonalEdgeStyle;rounded=0;orthogonalLoop=1;jettySize=auto;html=1;exitX=1;exitY=0;entryX=0;entryY=0.5;strokeColor=#82b366;fontColor=#000000;fontStyle=1;strokeWidth=3;fontSize=11;fontFamily=Arial;" parent="1" source="user" target="cloudfront" edge="1">
          <mxGeometry relative="1" as="geometry">
            <mxPoint x="10" y="30" as="offset" />
          </mxGeometry>
        </mxCell>
        <mxCell id="route53-connection" value="DNS Resolution" style="edgeStyle=orthogonalEdgeStyle;rounded=0;orthogonalLoop=1;jettySize=auto;html=1;exitX=0.5;exitY=0;entryX=0.5;entryY=1;strokeColor=#87CEEB;fontColor=#000000;fontStyle=1;strokeWidth=1;fontSize=9;dashed=1;fontFamily=Arial;" parent="1" source="route53" target="user" edge="1">
          <mxGeometry relative="1" as="geometry">
            <Array as="points">
              <mxPoint x="700" y="40" />
              <mxPoint x="110" y="40" />
            </Array>
            <mxPoint x="-30" y="10" as="offset" />
          </mxGeometry>
        </mxCell>
        <mxCell id="igw-to-alb" value="Route Traffic" style="edgeStyle=orthogonalEdgeStyle;rounded=0;orthogonalLoop=1;jettySize=auto;html=1;exitX=0;exitY=0;entryX=0.5;entryY=1;strokeColor=#d79b00;fontColor=#000000;fontStyle=1;strokeWidth=2;fontSize=9;fontFamily=Arial;" parent="1" source="igw" target="alb" edge="1">
          <mxGeometry relative="1" as="geometry">
            <Array as="points">
              <mxPoint x="530" y="150" />
            </Array>
            <mxPoint x="-20" y="10" as="offset" />
          </mxGeometry>
        </mxCell>
        <mxCell id="alb-to-ec2-1a" value="3a. Load Balance" style="edgeStyle=orthogonalEdgeStyle;rounded=0;orthogonalLoop=1;jettySize=auto;html=1;exitX=0.25;exitY=1;entryX=0.5;entryY=0;strokeColor=#ff9900;fontColor=#000000;fontStyle=1;strokeWidth=2;fontSize=10;fontFamily=Arial;" parent="1" source="alb" target="ec2-1a" edge="1">
          <mxGeometry relative="1" as="geometry">
            <Array as="points">
              <mxPoint x="495" y="200" />
              <mxPoint x="390" y="200" />
            </Array>
            <mxPoint x="-30" as="offset" />
          </mxGeometry>
        </mxCell>
        <mxCell id="alb-to-ec2-1b" value="3b. Load Balance" style="edgeStyle=orthogonalEdgeStyle;rounded=0;orthogonalLoop=1;jettySize=auto;html=1;exitX=0.75;exitY=1;entryX=0.5;entryY=0;strokeColor=#ff9900;fontColor=#000000;fontStyle=1;strokeWidth=2;fontSize=10;fontFamily=Arial;" parent="1" source="alb" target="ec2-1b" edge="1">
          <mxGeometry relative="1" as="geometry">
            <Array as="points">
              <mxPoint x="565" y="200" />
              <mxPoint x="1030" y="200" />
            </Array>
            <mxPoint x="30" as="offset" />
          </mxGeometry>
        </mxCell>
        <mxCell id="ec2-1a-to-rds" value="4a. Metadata&#xa;Read/Write" style="edgeStyle=orthogonalEdgeStyle;rounded=0;orthogonalLoop=1;jettySize=auto;html=1;exitX=0.5;exitY=1;entryX=0.5;entryY=0;strokeColor=#0073bb;fontColor=#ffffff;fontStyle=1;strokeWidth=2;fontSize=10;fontFamily=Arial;" parent="1" source="ec2-1a" target="rds-master" edge="1">
          <mxGeometry relative="1" as="geometry">
            <mxPoint y="15" as="offset" />
          </mxGeometry>
        </mxCell>
        <mxCell id="ec2-1b-to-rds" value="4b. Metadata&#xa;Read/Write" style="edgeStyle=orthogonalEdgeStyle;rounded=0;orthogonalLoop=1;jettySize=auto;html=1;exitX=0;exitY=1;entryX=1;entryY=0;strokeColor=#0073bb;fontColor=#ffffff;fontStyle=1;strokeWidth=2;fontSize=10;fontFamily=Arial;" parent="1" source="ec2-1b" target="rds-master" edge="1">
          <mxGeometry relative="1" as="geometry">
            <Array as="points">
              <mxPoint x="990" y="650" />
              <mxPoint x="450" y="650" />
            </Array>
            <mxPoint x="20" y="-20" as="offset" />
          </mxGeometry>
        </mxCell>
        <mxCell id="ec2-1a-to-s3" value="5a. Upload Photos" style="edgeStyle=orthogonalEdgeStyle;rounded=0;orthogonalLoop=1;jettySize=auto;html=1;exitX=1;exitY=1;entryX=0;entryY=0;strokeColor=#e45c56;fontColor=#ffffff;fontStyle=1;strokeWidth=2;fontSize=10;fontFamily=Arial;" parent="1" source="ec2-1a" target="s3" edge="1">
          <mxGeometry relative="1" as="geometry">
            <Array as="points">
              <mxPoint x="430" y="620" />
              <mxPoint x="860" y="620" />
            </Array>
            <mxPoint y="-15" as="offset" />
          </mxGeometry>
        </mxCell>
        <mxCell id="ec2-1b-to-s3" value="5b. Upload Photos" style="edgeStyle=orthogonalEdgeStyle;rounded=0;orthogonalLoop=1;jettySize=auto;html=1;exitX=0.5;exitY=1;entryX=1;entryY=0;strokeColor=#e45c56;fontColor=#ffffff;fontStyle=1;strokeWidth=2;fontSize=10;fontFamily=Arial;" parent="1" source="ec2-1b" target="s3" edge="1">
          <mxGeometry x="-0.3333" y="20" relative="1" as="geometry">
            <Array as="points">
              <mxPoint x="1030" y="660" />
              <mxPoint x="980" y="660" />
            </Array>
            <mxPoint as="offset" />
          </mxGeometry>
        </mxCell>
        <mxCell id="cloudfront-to-s3" value="6. Lấy ảnh&#xa;(Cache Miss)" style="edgeStyle=orthogonalEdgeStyle;rounded=0;orthogonalLoop=1;jettySize=auto;html=1;exitX=1;exitY=1;entryX=0.5;entryY=0;strokeColor=#82b366;fontColor=#000000;fontStyle=1;strokeWidth=3;fontSize=11;fontFamily=Arial;" parent="1" source="cloudfront" target="s3" edge="1">
          <mxGeometry relative="1" as="geometry">
            <Array as="points">
              <mxPoint x="410" y="160" />
              <mxPoint x="920" y="160" />
            </Array>
            <mxPoint x="20" y="-30" as="offset" />
          </mxGeometry>
        </mxCell>
        <mxCell id="rds-replication" value="Auto Sync Replication" style="edgeStyle=orthogonalEdgeStyle;rounded=0;orthogonalLoop=1;jettySize=auto;html=1;exitX=1;exitY=0.5;entryX=0;entryY=0.5;strokeColor=#0073bb;fontColor=#000000;fontStyle=1;strokeWidth=3;dashed=1;fontSize=10;fontFamily=Arial;" parent="1" source="rds-master" target="rds-slave" edge="1">
          <mxGeometry relative="1" as="geometry">
            <mxPoint y="-20" as="offset" />
          </mxGeometry>
        </mxCell>
        <mxCell id="ec2-1a-to-nat" value="Internet Out" style="edgeStyle=orthogonalEdgeStyle;rounded=0;orthogonalLoop=1;jettySize=auto;html=1;exitX=0;exitY=0;entryX=0.5;entryY=1;strokeColor=#d79b00;fontColor=#000000;fontStyle=1;strokeWidth=1;fontSize=9;fontFamily=Arial;" parent="1" source="ec2-1a" target="nat-1a" edge="1">
          <mxGeometry relative="1" as="geometry">
            <Array as="points">
              <mxPoint x="350" y="420" />
              <mxPoint x="360" y="420" />
            </Array>
            <mxPoint x="-30" as="offset" />
          </mxGeometry>
        </mxCell>
        <mxCell id="ec2-1b-to-nat" value="Internet Out" style="edgeStyle=orthogonalEdgeStyle;rounded=0;orthogonalLoop=1;jettySize=auto;html=1;exitX=1;exitY=0;entryX=0.5;entryY=1;strokeColor=#d79b00;fontColor=#000000;fontStyle=1;strokeWidth=1;fontSize=9;fontFamily=Arial;" parent="1" source="ec2-1b" target="nat-1b" edge="1">
          <mxGeometry relative="1" as="geometry">
            <Array as="points">
              <mxPoint x="1070" y="420" />
              <mxPoint x="1040" y="420" />
            </Array>
            <mxPoint x="30" as="offset" />
          </mxGeometry>
        </mxCell>
        <mxCell id="nat-1a-to-igw" value="Route to Internet" style="edgeStyle=orthogonalEdgeStyle;rounded=0;orthogonalLoop=1;jettySize=auto;html=1;exitX=1;exitY=0;entryX=0;entryY=1;strokeColor=#d79b00;fontColor=#000000;fontStyle=1;strokeWidth=2;fontSize=9;fontFamily=Arial;" parent="1" source="nat-1a" target="igw" edge="1">
          <mxGeometry relative="1" as="geometry">
            <Array as="points">
              <mxPoint x="550" y="330" />
              <mxPoint x="550" y="250" />
            </Array>
            <mxPoint y="-20" as="offset" />
          </mxGeometry>
        </mxCell>
        <mxCell id="nat-1b-to-igw" value="Route to Internet" style="edgeStyle=orthogonalEdgeStyle;rounded=0;orthogonalLoop=1;jettySize=auto;html=1;exitX=0;exitY=0;entryX=1;entryY=1;strokeColor=#d79b00;fontColor=#000000;fontStyle=1;strokeWidth=2;fontSize=9;fontFamily=Arial;" parent="1" source="nat-1b" target="igw" edge="1">
          <mxGeometry relative="1" as="geometry">
            <Array as="points">
              <mxPoint x="850" y="330" />
              <mxPoint x="850" y="250" />
            </Array>
            <mxPoint y="-20" as="offset" />
          </mxGeometry>
        </mxCell>
      </root>
    </mxGraphModel>
  </diagram>
</mxfile>
